<svg width="12.000000" height="12.000000" viewBox="0 0 12 12" fill="none" xmlns="http://www.w3.org/2000/svg" xmlns:xlink="http://www.w3.org/1999/xlink">
	<desc>
			Created with Pixso.
	</desc>
	<defs/>
	<path id="Vector 139 (Stroke)" d="M0.16 0.17C0.39 -0.06 0.76 -0.06 0.99 0.17L6 5.17L11 0.17C11.23 -0.06 11.6 -0.06 11.83 0.17C12.05 0.39 12.05 0.76 11.83 0.99L6.82 6L11.83 11C12.05 11.23 12.05 11.6 11.83 11.82C11.6 12.05 11.23 12.05 11 11.82L6 6.82L0.99 11.82C0.76 12.05 0.39 12.05 0.16 11.82C-0.06 11.6 -0.06 11.23 0.16 11L5.17 6L0.16 0.99C-0.06 0.76 -0.06 0.39 0.16 0.17Z" fill="#46A358" fill-opacity="1.000000" fill-rule="evenodd"/>
</svg>
