<svg width="20.000000" height="20.000000" viewBox="0 0 20 20" fill="none" xmlns="http://www.w3.org/2000/svg" xmlns:xlink="http://www.w3.org/1999/xlink">
	<desc>
			Created with Pixso.
	</desc>
	<defs/>
	<path id="Vector" d="M16.43 17.6C14.69 19.07 12.44 20 10 20C6.35 20 3.15 17.99 1.42 15.06L2.07 12.06L4.94 11.53C5.61 13.69 7.63 15.27 10 15.27C11.14 15.27 12.21 14.91 13.09 14.26L15.85 14.68L16.43 17.6Z" fill="#59C36A" fill-opacity="1.000000" fill-rule="nonzero"/>
	<path id="Vector" d="M16.43 17.6L15.85 14.68L13.09 14.26C12.21 14.91 11.14 15.27 10 15.27L10 20C12.44 20 14.69 19.07 16.43 17.6Z" fill="#00A66C" fill-opacity="1.000000" fill-rule="nonzero"/>
	<path id="Vector" d="M4.72 10C4.72 10.53 4.8 11.05 4.94 11.53L1.42 15.06C0.54 13.58 0 11.85 0 10C0 8.14 0.54 6.41 1.42 4.93L4.25 5.42L4.94 8.46C4.8 8.94 4.72 9.46 4.72 10Z" fill="#FFDA2D" fill-opacity="1.000000" fill-rule="nonzero"/>
	<path id="Vector" d="M20 10C20 13.04 18.58 15.77 16.43 17.6L13.09 14.26C13.77 13.77 14.34 13.11 14.72 12.34L10 12.34C9.67 12.34 9.41 12.08 9.41 11.75L9.41 8.24C9.41 7.91 9.67 7.65 10 7.65L19.25 7.65C19.53 7.65 19.77 7.85 19.82 8.13C19.94 8.74 20 9.37 20 10Z" fill="#4086F4" fill-opacity="1.000000" fill-rule="nonzero"/>
	<path id="Vector" d="M14.72 12.34C14.34 13.11 13.77 13.77 13.09 14.26L16.43 17.6C18.58 15.77 20 13.04 20 10C20 9.37 19.94 8.74 19.82 8.13C19.77 7.85 19.53 7.65 19.25 7.65L10 7.65L10 12.34L14.72 12.34Z" fill="#4175DF" fill-opacity="1.000000" fill-rule="nonzero"/>
	<path id="Vector" d="M16.59 2.79C16.6 2.95 16.53 3.1 16.43 3.22L13.92 5.72C13.72 5.93 13.39 5.95 13.16 5.78C12.23 5.08 11.14 4.72 10 4.72C7.63 4.72 5.61 6.3 4.94 8.46L1.42 4.93C3.15 2 6.35 0 10 0C12.33 0 14.6 0.85 16.38 2.35C16.51 2.46 16.58 2.62 16.59 2.79Z" fill="#FF641A" fill-opacity="1.000000" fill-rule="nonzero"/>
	<path id="Vector" d="M13.16 5.78C13.39 5.95 13.72 5.93 13.92 5.72L16.43 3.22C16.53 3.1 16.6 2.95 16.59 2.79C16.58 2.62 16.51 2.46 16.38 2.35C14.6 0.85 12.33 0 10 0L10 4.72C11.14 4.72 12.23 5.08 13.16 5.78Z" fill="#F03800" fill-opacity="1.000000" fill-rule="nonzero"/>
</svg>
