<svg width="16.000000" height="16.000000" viewBox="0 0 16 16" fill="none" xmlns="http://www.w3.org/2000/svg" xmlns:xlink="http://www.w3.org/1999/xlink">
	<desc>
			Created with Pixso.
	</desc>
	<defs/>
	<path id="Instagram" d="M8 1.46C10.13 1.46 10.4 1.46 11.26 1.53C13.46 1.6 14.46 2.66 14.53 4.8C14.6 5.66 14.6 5.86 14.6 8C14.6 10.13 14.6 10.39 14.53 11.2C14.46 13.33 13.4 14.39 11.26 14.46C10.4 14.53 10.2 14.53 8 14.53C5.86 14.53 5.6 14.53 4.79 14.46C2.6 14.39 1.6 13.33 1.53 11.2C1.46 10.33 1.46 10.13 1.46 8C1.46 5.86 1.46 5.6 1.53 4.8C1.6 2.66 2.66 1.6 4.79 1.53C5.6 1.46 5.86 1.46 8 1.46ZM8 0C5.79 0 5.53 0 4.73 0.06C1.79 0.19 0.2 1.8 0.06 4.73C0 5.53 0 5.8 0 8C0 10.2 0 10.46 0.06 11.26C0.2 14.2 1.79 15.8 4.73 15.93C5.53 16 5.79 16 8 16C10.2 16 10.46 16 11.26 15.93C14.2 15.8 15.8 14.2 15.93 11.26C16 10.46 16 10.2 16 8C16 5.8 16 5.53 15.93 4.73C15.8 1.8 14.2 0.19 11.26 0.06C10.46 0 10.2 0 8 0ZM8 3.86C5.73 3.86 3.86 5.73 3.86 8C3.86 10.26 5.73 12.13 8 12.13C10.26 12.13 12.13 10.26 12.13 8C12.13 5.73 10.26 3.86 8 3.86ZM8 10.66C6.53 10.66 5.33 9.46 5.33 8C5.33 6.53 6.53 5.33 8 5.33C9.46 5.33 10.66 6.53 10.66 8C10.66 9.46 9.46 10.66 8 10.66ZM12.26 2.8C11.73 2.8 11.33 3.19 11.33 3.73C11.33 4.26 11.73 4.66 12.26 4.66C12.8 4.66 13.2 4.26 13.2 3.73C13.2 3.19 12.8 2.8 12.26 2.8Z" fill="#46A358" fill-opacity="0.600000" fill-rule="nonzero"/>
</svg>
