<svg width="16.000000" height="16.000000" viewBox="0 0 16 16" fill="none" xmlns="http://www.w3.org/2000/svg" xmlns:xlink="http://www.w3.org/1999/xlink">
	<desc>
			Created with Pixso.
	</desc>
	<defs/>
	<path id="Linkedin" d="M3.33 1.66C3.33 2.6 2.6 3.33 1.66 3.33C0.73 3.33 0 2.6 0 1.66C0 0.73 0.73 0 1.66 0C2.6 0 3.33 0.73 3.33 1.66ZM3.33 4.66L0 4.66L0 15.33L3.33 15.33L3.33 4.66ZM8.66 4.66L5.33 4.66L5.33 15.33L8.66 15.33L8.66 9.73C8.66 6.6 12.66 6.33 12.66 9.73L12.66 15.33L16 15.33L16 8.6C16 3.33 10.06 3.53 8.66 6.13L8.66 4.66Z" fill="#46A358" fill-opacity="0.600000" fill-rule="nonzero"/>
</svg>
