<svg width="16.000000" height="14.000000" viewBox="0 0 16 14" fill="none" xmlns="http://www.w3.org/2000/svg" xmlns:xlink="http://www.w3.org/1999/xlink">
	<desc>
			Created with Pixso.
	</desc>
	<defs/>
	<path id="Twitter" d="M5.03 13C11.06 13 14.37 8 14.37 3.66C14.37 3.52 14.36 3.38 14.36 3.23C15 2.77 15.56 2.19 16 1.53C15.41 1.8 14.77 1.97 14.11 2.05C14.79 1.64 15.31 1 15.55 0.24C14.92 0.61 14.22 0.88 13.47 1.03C12.87 0.39 12.02 0 11.07 0C9.26 0 7.79 1.47 7.79 3.28C7.79 3.54 7.82 3.79 7.87 4.03C5.15 3.89 2.73 2.58 1.11 0.6C0.83 1.08 0.66 1.64 0.66 2.25C0.66 3.38 1.24 4.39 2.12 4.98C1.59 4.96 1.08 4.81 0.64 4.57C0.64 4.58 0.64 4.6 0.64 4.61C0.64 6.2 1.77 7.53 3.27 7.83C3 7.9 2.71 7.94 2.41 7.94C2.19 7.94 1.99 7.92 1.79 7.88C2.21 9.19 3.42 10.14 4.86 10.16C3.73 11.04 2.32 11.57 0.78 11.57C0.51 11.57 0.25 11.55 0 11.52C1.45 12.46 3.17 13 5.03 13Z" fill="#46A358" fill-opacity="0.600000" fill-rule="nonzero"/>
</svg>
