<svg width="19.000000" height="14.000000" viewBox="0 0 19 14" fill="none" xmlns="http://www.w3.org/2000/svg" xmlns:xlink="http://www.w3.org/1999/xlink">
	<desc>
			Created with Pixso.
	</desc>
	<defs/>
	<path id="Union" d="M18.6659 7.01904C18.6659 2.19702 18.277 0.408203 15.2438 0.175049C12.4439 -0.0583496 6.22195 -0.0583496 3.42209 0.175049C0.388885 0.408203 0 2.19702 0 7.01904C0 11.8411 0.388885 13.6299 3.42209 13.8633C6.22195 14.0188 12.4439 14.0188 15.2438 13.8633C18.277 13.7078 18.6659 11.8411 18.6659 7.01904ZM4.32443 4.35693Q4.32407 4.3606 4.3237 4.3645Q4.23602 5.25244 4.23602 7.01904Q4.23602 8.7793 4.32306 9.66724Q6.16599 9.7439 9.33295 9.7439Q12.4464 9.7439 14.3441 9.66577Q14.4299 8.7688 14.4299 7.01904Q14.4299 5.25244 14.3422 4.3645L14.3415 4.35718Q13.5589 4.30859 12.4882 4.27808Q11.0175 4.23608 9.33295 4.23608Q7.64838 4.23608 6.17767 4.27808Q5.09738 4.30884 4.32443 4.35693ZM6.99973 7.01904C6.99973 5.58984 8.50388 4.66016 9.78229 5.29956C11.1994 6.00806 11.1994 8.03027 9.78229 8.73877C8.50388 9.37817 6.99973 8.44849 6.99973 7.01904Z" clip-rule="evenodd" fill="#46A358" fill-opacity="0.600000" fill-rule="evenodd"/>
</svg>
